<?xml version="1.0" encoding="UTF-8"?>
<svg id="Capa_2" data-name="Capa 2" xmlns="http://www.w3.org/2000/svg" viewBox="0 0 3997.5 762">
  <defs>
    <style>
      .cls-1 {
        fill: #a88aee;
      }

      .cls-2 {
        fill: #fff;
      }

      .cls-3, .cls-4 {
        fill: #265787;
      }

      .cls-5 {
        fill: #e87500;
      }

      .cls-4 {
        stroke-width: 50px;
      }

      .cls-4, .cls-6 {
        stroke: #a88aee;
        stroke-miterlimit: 10;
      }

      .cls-6 {
        fill: none;
        stroke-width: 12px;
      }
    </style>
  </defs>
  <g id="Capa_1-2" data-name="Capa 1">
    <g>
      <path class="cls-4" d="M863.92,323.91c-9.28-15.32-19.72-29.58-31.85-42.86-11.63-12.74-24.28-24.49-38.01-35.04L521.05,36.18c-5.04-3.88-10.27-6.77-16.42-8.57-15.69-4.59-32.61-3.15-47.09,4.48-15.01,7.91-26.17,23.31-20.41,40.64,2.19,5.69,5.63,10.48,10.48,14.43l114.12,92.87-346.83.35c-18.33.02-36.15,6.46-49.28,19.17-6.79,6.54-11.71,14.29-13.92,23.38-4.86,19.94,7.6,36.42,26.26,42.23,5.84,1.7,11.49,2.67,17.82,2.66l175.9-.29L52.85,511.43c-9.97,7.63-17.31,18.22-22.56,29.26-3.56,8.63-5.52,17.01-5.27,26.26.5,19.26,12.41,35.6,30.59,41.98,22.6,7.93,49.32.7,67.45-14.15l171.44-140.46c.41-.43.86-.51.93-.08-1.06,10.28-2.66,20.39-1.83,30.65,1.33,16.64,4.14,32.9,9.04,49,8.52,27.99,21.7,54.16,38.87,77.87,42.16,58.19,104.6,98.23,174.21,115.46,44.86,11.1,91.63,12.75,137.19,4.96,42.45-7.26,82.94-22.94,119.13-46.19,32.87-21.13,61.31-48.48,83.41-80.71,24.27-35.4,39.78-76.17,44.57-118.83,6.37-56.68-6.61-113.87-36.09-162.54Z"/>
      <rect class="cls-6" x="1043.74" y="288.55" width="2947.76" height="184.9" rx="92.45" ry="92.45"/>
      <path class="cls-1" d="M1136.19,288.55h1812.31v184.9h-1812.31c-51.02,0-92.45-41.43-92.45-92.45h0c0-51.03,41.43-92.45,92.45-92.45Z"/>
      <g>
        <path class="cls-5" d="M123.06,594.78c-18.13,14.85-44.85,22.08-67.45,14.15-18.18-6.38-30.09-22.72-30.59-41.98-.24-9.25,1.72-17.63,5.27-26.26,5.25-11.03,12.59-21.63,22.56-29.26l318.83-243.91-175.9.29c-6.34.01-11.98-.96-17.82-2.66-18.66-5.81-31.12-22.29-26.26-42.23,2.21-9.09,7.14-16.84,13.92-23.38,13.13-12.7,30.95-19.15,49.28-19.17l346.83-.35-114.12-92.87c-4.85-3.95-8.29-8.73-10.48-14.43-5.77-17.32,5.39-32.73,20.41-40.64,14.48-7.62,31.4-9.07,47.09-4.48,6.14,1.8,11.37,4.69,16.42,8.57l273.01,209.84c13.73,10.55,26.38,22.3,38.01,35.04,12.12,13.27,22.56,27.54,31.85,42.86,29.49,48.67,42.46,105.86,36.09,162.54-4.79,42.65-20.3,83.43-44.57,118.83-22.1,32.23-50.54,59.58-83.41,80.71-36.19,23.26-76.68,38.93-119.13,46.19-45.56,7.79-92.33,6.14-137.19-4.96-69.61-17.22-132.05-57.26-174.21-115.46-17.18-23.71-30.35-49.88-38.87-77.87-4.9-16.1-7.7-32.36-9.04-49-.82-10.26.77-20.36,1.83-30.65-.07-.44-.51-.35-.93.08l-171.44,140.46Z"/>
        <g>
          <path class="cls-2" d="M651.67,597.16c-38.82,10.7-80.1,9.72-118.09-2.65-50.47-16.44-93.77-54.36-112.39-104.4-16.17-43.44-11.77-91.97,11.47-132.01,10.04-17.3,23-32.65,38.38-45.59,51.05-42.97,122.05-55.67,185.6-36.41,42.54,12.89,79.59,40.02,102.96,77.72,29.77,48,31.2,108.36,3.69,157.71-23.47,42.09-64.85,72.75-111.61,85.64Z"/>
          <path class="cls-3" d="M679.1,506.09c-54.2,46.33-141.81,37.3-182.2-21.58-12.66-18.45-18.72-39.96-17.52-62.42,2.18-40.74,29.75-74.66,66.4-90.83,47.85-21.12,106.29-11.19,142.31,27.28,28.19,30.11,36.31,73.25,18.82,110.98-6.55,14.14-15.95,26.45-27.8,36.58Z"/>
        </g>
      </g>
    </g>
  </g>
</svg>